<?xml version="1.0" standalone="no"?>
<!DOCTYPE svg PUBLIC "-//W3C//DTD SVG 20010904//EN"
 "http://www.w3.org/TR/2001/REC-SVG-20010904/DTD/svg10.dtd">
<svg version="1.0" xmlns="http://www.w3.org/2000/svg"
 width="450.000000pt" height="450.000000pt" viewBox="0 0 450.000000 450.000000"
 preserveAspectRatio="xMidYMid meet">
<metadata>
Created by potrace 1.14, written by Peter Selinger 2001-2017
</metadata>
<g transform="translate(0.000000,450.000000) scale(0.100000,-0.100000)"
fill="#000000" stroke="none">
<path d="M1185 4398 c-10 -10 -14 -18 -9 -18 10 0 10 -121 0 -146 -3 -8 -10
-12 -16 -9 -5 3 -10 1 -10 -4 0 -6 -3 -10 -7 -9 -5 1 -18 -3 -30 -10 -13 -7
-23 -11 -23 -8 0 2 -13 -8 -30 -22 -22 -20 -27 -29 -18 -39 6 -7 7 -13 2 -13
-5 0 2 -7 14 -16 12 -8 26 -13 31 -10 5 3 14 -1 21 -9 10 -12 3 -19 -37 -44
-26 -17 -53 -35 -59 -40 -7 -5 -15 -7 -18 -4 -3 4 -6 1 -6 -5 0 -7 -6 -12 -13
-12 -7 0 -23 -9 -35 -20 -12 -11 -24 -20 -27 -20 -20 0 -65 -47 -65 -67 0 -31
-39 -50 -68 -34 -37 20 -132 6 -132 -20 0 -4 -23 -15 -51 -24 -59 -20 -115
-70 -124 -111 -20 -86 -29 -110 -53 -141 -15 -18 -32 -33 -38 -33 -12 0 -69
-66 -69 -80 0 -5 -3 -11 -7 -15 -10 -10 2 -58 19 -77 9 -10 13 -18 8 -18 -4 0
4 -9 19 -21 26 -21 66 -19 66 3 0 6 3 9 6 6 3 -3 17 5 32 19 l26 24 14 -43 c7
-24 15 -99 17 -168 5 -133 9 -194 20 -256 4 -22 8 -52 11 -69 2 -16 6 -40 9
-52 3 -13 7 -32 10 -44 2 -11 6 -28 9 -37 3 -9 7 -28 10 -42 14 -76 81 -240
98 -240 4 0 8 -5 8 -12 0 -13 74 -86 145 -143 27 -22 55 -44 62 -50 48 -40
126 -90 136 -87 4 1 7 -2 7 -8 0 -5 6 -10 14 -10 8 0 16 -4 18 -8 5 -14 205
-107 221 -103 21 4 79 -32 128 -80 l54 -54 0 -157 c0 -87 4 -158 8 -158 5 0 5
-5 1 -11 -4 -7 -8 -61 -8 -120 -2 -119 -13 -142 -66 -146 -14 -1 -44 -3 -67
-5 -24 -2 -43 -5 -43 -8 0 -3 -48 -5 -106 -5 -58 0 -108 -4 -111 -9 -3 -4 -9
-2 -14 5 -7 12 -9 12 -9 0 0 -11 -3 -11 -15 -1 -11 9 -15 9 -15 1 0 -8 -5 -9
-16 -3 -21 12 -54 -19 -60 -56 -3 -15 -9 -31 -13 -37 -4 -5 -9 -26 -11 -45 -6
-51 -3 -261 4 -287 3 -13 8 -32 10 -43 14 -60 77 -103 136 -93 33 6 54 11 60
14 3 1 10 3 15 4 6 2 12 4 15 5 3 1 21 3 40 5 19 2 58 6 85 10 81 11 138 14
167 9 24 -5 26 -9 22 -41 -2 -19 -8 -43 -13 -52 -5 -9 -12 -34 -16 -56 -9 -45
-12 -54 -15 -57 -2 -3 -5 -19 -13 -58 -3 -14 -10 -43 -15 -65 -6 -22 -13 -51
-16 -65 -3 -14 -7 -36 -10 -50 -3 -14 -9 -41 -13 -60 -9 -46 -10 -50 -12 -52
-1 -2 -4 -16 -7 -33 -5 -37 -12 -70 -14 -70 -1 0 -4 -12 -6 -27 l-5 -28 176 0
c133 0 175 3 176 13 0 6 2 21 4 32 3 11 6 36 9 55 3 19 11 59 19 89 8 30 14
61 12 70 -1 9 1 18 5 21 5 3 11 19 14 35 10 56 29 120 39 133 5 7 7 15 4 19
-3 3 0 21 8 41 8 19 17 46 20 60 2 14 10 29 17 34 7 4 9 8 3 8 -5 1 0 5 12 10
11 5 57 10 100 11 79 2 123 -12 123 -38 0 -18 63 -62 85 -59 41 6 80 -9 81
-32 1 -12 3 -23 4 -24 1 -2 4 -25 5 -53 2 -27 6 -88 10 -135 9 -128 13 -190
14 -243 l1 -47 163 2 162 3 -1 40 c-2 89 -10 171 -17 183 -5 7 -3 12 3 12 6 0
9 4 5 9 -11 18 -25 243 -17 269 7 21 26 13 47 -18 11 -16 26 -30 33 -30 6 0
12 -4 12 -10 0 -5 15 -10 33 -10 24 0 46 13 91 50 44 38 61 48 71 40 13 -11
30 -15 92 -27 40 -7 80 17 89 52 3 14 10 25 15 25 4 0 14 19 20 43 7 23 13 44
14 47 16 56 25 239 12 247 -4 2 -5 9 -2 14 9 14 -27 45 -67 58 -37 12 -72 47
-63 61 9 15 -46 62 -65 57 -11 -3 -20 -2 -20 2 0 4 -12 6 -27 6 -16 -1 -34 3
-40 8 -7 5 -13 7 -13 4 0 -8 -101 35 -128 54 -21 15 -26 48 -10 65 4 3 4 12 1
20 -3 8 0 14 6 14 7 0 11 6 9 12 -1 7 3 22 9 33 6 11 12 25 13 30 3 12 13 38
33 88 9 20 13 37 10 37 -3 0 0 6 6 13 6 8 12 22 14 33 1 10 6 24 10 30 3 6 9
32 11 58 6 57 9 62 49 82 18 9 36 23 40 31 5 7 12 11 18 8 5 -4 9 -1 9 4 0 14
75 92 87 90 14 -2 52 13 121 47 37 19 73 34 80 34 6 0 12 5 12 12 0 6 3 9 6 5
4 -3 22 5 42 18 19 13 39 22 44 19 4 -3 8 -1 8 4 0 5 12 15 28 23 15 7 44 26
65 42 20 16 37 26 37 24 0 -12 146 127 197 188 13 15 23 31 23 36 0 5 5 9 12
9 6 0 9 3 6 6 -4 3 2 14 13 25 10 10 19 26 19 34 0 8 5 15 10 15 6 0 10 9 10
20 0 11 5 20 12 20 6 0 9 3 5 6 -3 3 5 30 18 60 13 30 21 54 18 54 -3 0 -1 6
4 13 11 13 27 67 25 80 -1 4 2 7 6 7 4 0 9 9 10 20 4 43 6 50 13 50 4 0 6 6 6
13 -1 6 4 44 12 84 7 40 10 77 6 83 -3 5 -2 10 2 10 5 0 10 17 11 38 6 100 14
157 24 169 6 7 8 13 5 13 -7 0 51 141 64 155 5 5 9 17 9 27 0 10 5 18 12 18 6
0 9 3 5 6 -3 3 4 27 15 52 16 39 18 58 12 112 -4 36 -8 77 -9 91 -1 14 -6 32
-10 39 -6 9 -4 11 4 5 10 -6 11 -3 2 14 -7 11 -9 21 -6 21 4 0 -22 77 -30 88
-1 1 -12 5 -25 7 -12 2 -28 9 -36 16 -8 6 -14 8 -14 3 0 -4 -10 1 -22 12 -36
30 -61 41 -88 38 -14 -1 -44 -5 -68 -7 -25 -3 -53 0 -68 8 -23 11 -47 12 -99
2 -25 -5 -68 -66 -61 -89 2 -10 1 -18 -3 -18 -10 0 -6 -62 5 -85 5 -11 9 -29
9 -40 0 -11 3 -22 7 -25 3 -3 8 -29 10 -58 2 -28 7 -52 12 -52 5 0 3 -6 -3
-13 -6 -8 -8 -17 -4 -20 3 -4 8 -23 10 -42 6 -61 11 -110 13 -110 13 0 18
-277 6 -355 -3 -24 -12 -62 -18 -85 -6 -22 -11 -43 -10 -47 1 -5 -3 -8 -9 -8
-5 0 -8 -4 -5 -9 3 -5 -1 -21 -8 -37 -8 -16 -16 -36 -18 -44 -2 -8 -9 -21 -16
-28 -7 -8 -10 -18 -7 -23 4 -5 1 -9 -4 -9 -6 0 -11 -6 -11 -14 0 -7 -7 -19
-15 -26 -9 -7 -13 -15 -11 -18 6 -5 -32 -63 -49 -74 -5 -4 -6 -8 -2 -8 9 0 4
-7 -53 -70 -22 -24 -40 -48 -40 -54 0 -5 -3 -7 -6 -4 -3 3 -21 -10 -40 -30
-19 -19 -34 -31 -34 -26 0 5 -6 2 -13 -7 -7 -8 -32 -26 -57 -40 -25 -13 -47
-27 -50 -30 -3 -3 -20 -11 -38 -19 -32 -13 -34 -12 -73 26 -23 21 -49 55 -60
74 -11 19 -28 49 -39 65 -24 36 -44 78 -42 87 1 3 -12 17 -29 30 -17 12 -40
30 -51 39 -16 12 -19 20 -11 34 13 23 86 30 103 9 7 -7 9 -14 5 -14 -4 0 3 -9
16 -19 22 -17 54 -27 69 -21 3 1 20 3 38 6 57 7 162 70 145 87 -3 3 18 22 47
43 28 20 55 47 60 58 4 12 6 72 5 134 -2 99 -5 117 -23 134 l-20 21 24 45 c23
42 24 67 7 112 -4 8 -7 18 -8 23 -2 4 -3 8 -5 10 -1 1 -3 10 -5 20 -2 10 -10
26 -18 35 -23 27 -25 45 -10 76 16 31 13 88 -6 124 -6 12 -9 22 -6 22 4 0 -1
7 -9 16 -9 8 -14 19 -11 24 3 5 1 11 -5 15 -5 3 -10 19 -10 35 0 16 -4 31 -10
35 -5 3 -7 12 -4 19 3 8 0 17 -5 21 -6 3 -9 11 -6 16 4 5 -1 12 -9 15 -9 3
-14 10 -11 14 3 5 -11 21 -30 36 -20 15 -43 41 -52 58 -19 37 -38 56 -54 56
-7 0 -9 3 -6 7 4 3 -16 21 -43 40 -28 18 -50 38 -50 43 0 6 -7 10 -15 10 -8 0
-15 4 -15 8 0 5 -12 14 -26 20 -24 12 -25 15 -19 70 8 76 13 116 15 122 1 3 2
8 1 13 -2 16 28 77 39 77 6 0 9 4 5 9 -3 5 -2 12 3 15 5 3 8 21 7 41 -2 38
-42 86 -68 81 -36 -7 -54 -19 -71 -50 -16 -30 -17 -42 -8 -77 6 -24 8 -48 4
-53 -3 -6 -8 -17 -9 -23 -6 -26 -10 -39 -26 -73 -8 -19 -17 -44 -19 -55 -6
-35 -54 -70 -77 -56 -7 5 -28 5 -47 1 -19 -4 -34 -6 -34 -3 0 3 -7 0 -15 -7
-8 -6 -19 -9 -25 -5 -5 3 -10 3 -10 -2 0 -4 -12 -9 -28 -10 -28 -3 -65 -10
-69 -13 -2 -2 -6 -3 -10 -5 -34 -9 -171 -83 -194 -104 -46 -44 -69 -61 -79
-61 -6 0 -10 -7 -10 -15 0 -8 -7 -15 -15 -15 -8 0 -15 -7 -15 -15 0 -8 -4 -15
-9 -15 -5 0 -9 -6 -8 -12 1 -34 -4 -48 -18 -48 -9 0 -27 -7 -40 -16 -14 -9
-25 -14 -25 -11 0 7 -69 -61 -90 -90 -15 -19 -18 -27 -23 -61 -1 -9 -6 -22
-10 -29 -4 -6 -3 -14 3 -18 6 -4 7 -11 4 -17 -4 -5 -6 -30 -6 -54 1 -24 -3
-44 -9 -44 -6 0 -8 -4 -4 -9 3 -5 -2 -17 -11 -25 -8 -9 -12 -16 -8 -16 3 0 0
-7 -7 -17 -8 -9 -13 -18 -11 -20 1 -2 -4 -16 -12 -31 -18 -35 -15 -61 11 -98
23 -32 39 -74 34 -89 -2 -5 -4 -21 -6 -35 -1 -14 -7 -43 -13 -64 -6 -22 -9
-43 -6 -47 2 -4 0 -10 -5 -14 -11 -6 17 -75 31 -75 4 0 8 -7 8 -15 0 -8 11
-17 25 -21 14 -3 25 -11 25 -17 0 -6 3 -7 7 -4 3 4 12 2 20 -5 7 -6 16 -8 19
-5 8 8 65 -44 59 -53 -3 -5 -21 -4 -40 0 -19 4 -35 4 -35 0 0 -5 -13 -11 -28
-15 -15 -3 -40 -17 -55 -31 -15 -13 -29 -23 -31 -22 -2 2 -18 -9 -35 -24 -17
-16 -35 -28 -41 -28 -5 0 -10 -5 -10 -11 0 -5 -4 -7 -10 -4 -5 3 -10 2 -10 -3
0 -5 -12 -15 -27 -23 -30 -15 -93 -77 -93 -91 0 -4 -7 -8 -15 -8 -8 0 -15 -4
-15 -10 0 -5 -6 -10 -14 -10 -8 0 -27 -15 -43 -32 -37 -43 -70 -46 -139 -14
-48 22 -176 103 -222 140 -40 33 -114 115 -125 139 -6 15 -15 27 -19 27 -5 0
-8 4 -8 9 0 5 -10 30 -22 57 -12 27 -22 54 -23 59 -2 30 -19 81 -29 87 -8 6
-8 8 1 8 9 0 10 7 3 24 -5 14 -12 58 -16 98 -3 40 -8 76 -11 81 -2 4 1 7 7 7
7 0 8 6 1 18 -7 13 -7 22 1 30 8 8 8 15 1 24 -8 9 -4 28 14 68 13 30 24 57 24
60 1 3 7 16 15 30 11 21 43 93 49 110 3 10 29 95 30 100 26 100 39 210 24 210
-12 0 2 33 23 53 10 10 18 16 18 13 0 -2 30 25 67 60 37 35 71 64 76 64 4 0 6
4 2 9 -3 5 4 12 15 16 11 3 25 15 30 26 9 16 14 17 30 6 11 -6 20 -17 20 -23
0 -5 13 -23 30 -39 l29 -28 31 33 c16 17 30 36 30 42 0 5 7 16 15 25 8 8 13
18 10 23 -8 13 23 19 98 18 58 0 70 3 87 22 28 32 25 54 -11 84 -17 14 -28 26
-24 26 4 0 0 7 -9 15 -15 15 -16 60 -3 83 5 6 6 12 3 12 -3 0 2 12 9 28 10 17
11 28 4 30 -6 3 -6 9 2 18 9 11 6 16 -14 25 -15 7 -34 8 -44 4 -10 -5 -21 -9
-25 -10 -5 -2 -9 -3 -10 -5 -2 -1 -10 -3 -18 -5 -8 -2 -32 -10 -52 -19 -39
-17 -43 -15 -121 55 -27 25 -69 28 -92 7z"/>
</g>
</svg>
