<svg xmlns="http://www.w3.org/2000/svg" xmlns:xlink="http://www.w3.org/1999/xlink" width="22px" height="25px" viewBox="0 0 22 25" version="1.1">
    <defs>
        <polygon id="path-1" points="0 0.00552884615 4.01254808 0.00552884615 4.01254808 11.6587139 0 11.6587139"/>
        <polygon id="path-3" points="0.0483233173 0.0347175481 9.90108774 0.0347175481 9.90108774 7.63221154 0.0483233173 7.63221154"/>
    </defs>
    <g id="Page-1" stroke="none" stroke-width="1" fill="none" fill-rule="evenodd">
        <g id="LP-Outils-Clients-V2" transform="translate(-150.000000, -30.000000)">
            <g id="Group-22" transform="translate(150.000000, 30.000000)">
                <g id="Group-25">
                    <g id="Group-13" transform="translate(0.000000, 3.532812)">
                        <mask id="mask-2" fill="white">
                            <use xlink:href="#path-1"/>
                        </mask>
                        <g id="Clip-12"/>
                        <path d="M0.00491586538,6.93191106 L0.00870192308,9.34711538 L4.01254808,11.6587139 L4.01254808,7.24266827 L4.01074519,6.07373798 C4.01074519,6.06430288 4.01248798,6.05522837 4.01254808,6.04579327 L4.01254808,0.00552884615 L4.01248798,0.00558894231 L4.01248798,0.00552884615 L1.2949399,1.58016827 C0.492235577,2.0453125 -0.00139423077,2.90324519 -1.20192308e-05,3.83112981 L0.00485576923,6.93197115 L0.00491586538,6.93191106 Z" id="Fill-11" fill="#8089FF" mask="url(#mask-2)"/>
                    </g>
                    <path d="M17.6610937,9.57859976 C17.6612139,9.58803486 17.6628966,9.59710938 17.6628966,9.60654447 L17.6610937,10.7754748 L17.6610937,20.6676022 L20.3567067,19.1168209 C21.1609736,18.6541406 21.6573077,17.7977103 21.6586899,16.8698257 L21.6629567,11.4428425 L17.6610937,9.13232572 L17.6610937,9.57859976 Z" id="Fill-14" fill="#FFD41D"/>
                    <g id="Group-18" transform="translate(6.790865, 16.573678)">
                        <mask id="mask-4" fill="white">
                            <use xlink:href="#path-3"/>
                        </mask>
                        <g id="Clip-17"/>
                        <path d="M9.62837139,0.19421274 L8.61509014,0.777145433 L0.0483233173,5.72311899 L2.73912861,7.28225361 C3.54195313,7.74739784 4.53185697,7.74902043 5.3360637,7.28628005 L9.90108774,4.66019832 L9.90108774,0.0347175481 L9.65156851,0.178647837 C9.64351563,0.183455529 9.63654447,0.18952524 9.62837139,0.19421274" id="Fill-16" fill="#19D9B4" mask="url(#mask-4)"/>
                    </g>
                    <path d="M6.26762019,17.3508353 L5.25439904,16.7679026 C5.24616587,16.7632151 5.23919471,16.7571454 5.23114183,16.7523377 L1.20192308e-05,13.7322055 L0.00506009615,16.8730108 C0.00650240385,17.8007151 0.50265625,18.6572055 1.30692308,19.1198858 L6.01251202,21.826857 L10.0164784,19.5151983 L6.26762019,17.3508353 Z" id="Fill-19" fill="#54CEFF"/>
                    <path d="M5.24381611,7.43802284 L6.25709736,6.85509014 L14.8238642,1.90905649 L12.1329988,0.349981971 C11.3301743,-0.11516226 10.3403906,-0.116784856 9.5361238,0.345895433 L4.98173678,2.96590745 L4.98173678,7.59138822 L5.22055889,7.45352764 C5.22867187,7.44878005 5.23570312,7.44277043 5.24381611,7.43802284" id="Fill-21" fill="#FF7483"/>
                    <path d="M15.3954567,6.85510817 L16.4086178,7.43804087 C16.4167909,7.44272837 16.4238822,7.44873798 16.4319351,7.45354567 L21.6630048,10.4736779 L21.6580168,7.33293269 C21.6565144,6.40516827 21.1604207,5.54867788 20.3560938,5.0859976 L15.6765264,2.39399038 L11.6725,4.70570913 L15.3954567,6.85510817 Z" id="Fill-23" fill="#FF8765"/>
                </g>
            </g>
        </g>
    </g>
</svg>